<svg xmlns="http://www.w3.org/2000/svg" width="189" height="75" viewBox="0 0 189 75">
    <path fill="#283238" fill-rule="nonzero" d="M34.56 10.32C38.12 2.97 41.012-.359 43.405.17c.474.1 1.153.41 1.697 1.311 1.642 2.72 1.343 9.713.032 17.954H43.13c1.445-8.993 1.4-15.034.26-16.923-.079-.13-.238-.355-.404-.392a.518.518 0 0 0-.09-.008c-.789 0-3.034 1.853-6.535 9.082-3.165 6.535-6.394 15.442-9.092 25.095-5.428 19.41-6.415 33.1-4.587 36.129.08.13.237.356.405.392.7.144 2.983-1.554 6.625-9.074a107.773 107.773 0 0 0 3.255-7.508l2.154-.003c-1.189 3.068-2.4 5.89-3.605 8.376-3.32 6.857-6.062 10.21-8.358 10.21-.164 0-.327-.017-.487-.052-.474-.098-1.153-.408-1.697-1.31-2.903-4.805.23-22.909 4.368-37.697 2.73-9.763 6-18.794 9.218-25.433zm65.732 21.086c3.962 0 7.108 2.042 8.782 5.187v-4.738h2.043v19.443c0 6.128-4.535 9.6-10.172 9.6-4.779 0-8.169-1.92-9.64-4.902l1.798-1.022c1.063 2.166 3.35 3.963 7.842 3.963 5.107 0 8.13-2.98 8.13-7.64V47.54c-1.67 3.145-4.821 5.188-8.783 5.188-5.84 0-10.579-4.617-10.579-10.661 0-6.045 4.739-10.661 10.58-10.661zm-48.465-8.308v29.765H48.61V49.5c-1.955 2.445-4.85 3.813-8.195 3.813-6.261 0-11.167-4.94-11.167-11.249 0-6.307 4.906-11.248 11.167-11.248 3.345 0 6.24 1.369 8.195 3.813V23.1h3.218zm-33.193 0v2.816l-6.456 9.206c4.774.84 7.805 4.25 7.801 8.899 0 5.475-4.122 9.288-10.023 9.288-4.608 0-8.223-2.17-9.653-5.805l-.185-.467 2.835-1.668.244.658c.965 2.599 3.366 4.029 6.761 4.029 3.997 0 6.683-2.424 6.683-6.03 0-3.663-2.656-6.03-6.765-6.03h-.93L7.613 35.97l6.807-9.653H.996v-3.218h17.638zm131 8.314c3.923 0 7.068 2.002 8.784 5.064v-4.621h2.083v20.424h-2.083v-4.61c-1.716 3.063-4.861 5.065-8.783 5.065-5.8 0-10.58-4.617-10.58-10.661 0-6.045 4.78-10.661 10.58-10.661zm-81.93-8.177c4.698 0 7.803 2.696 9.192 6.004l-1.839 1.021c-1.061-2.573-3.267-4.942-7.353-4.942-3.96 0-6.453 2.329-6.453 5.514 0 3.431 2.9 4.493 6.985 5.84 5.055 1.678 9.465 3.27 9.465 8.213 0 4.739-3.717 7.843-9.396 7.843-5.35 0-9.149-2.696-10.456-6.74h.003l1.88-1.103c.98 3.431 3.88 5.76 8.58 5.76 4.78 0 7.19-2.452 7.19-5.72 0-3.431-3.022-4.739-7.389-6.127-4.779-1.55-9.068-2.9-9.068-7.883 0-4.698 3.8-7.68 8.66-7.68zm113.71 8.17c3.309 0 5.839 1.594 6.943 4.086l-1.715.976c-.858-2.124-2.979-3.099-5.229-3.099-2.654 0-4.901 1.389-4.901 3.84 0 5.393 12.016 2.34 12.369 9.4l.008.32c0 3.349-2.941 5.8-7.313 5.8-4.084 0-6.78-1.921-7.759-4.535l1.756-1.02c.735 2.206 2.94 3.595 6.003 3.595 2.86 0 5.27-1.267 5.27-3.84 0-5.556-12.377-2.37-12.377-9.722 0-3.227 2.78-5.8 6.944-5.8zm-96.766.45v20.424h-2.042l-.003-20.424h2.045zm42.11-.45c4.861 0 7.925 3.227 7.925 8.17h.003v12.704h-2.084V39.575c0-3.758-2.165-6.209-6.005-6.209-4.003 0-7.15 2.615-7.15 8.129v10.784h-2.043V31.855h2.043v3.88c1.55-3.022 4.17-4.33 7.311-4.33zm42.075-8.946v29.819h-2.042V22.459h2.042zm-68.418 10.91c-4.86 0-8.66 3.84-8.66 8.699 0 4.86 3.799 8.7 8.66 8.7 4.861 0 8.66-3.84 8.66-8.7 0-4.861-3.8-8.7-8.66-8.7zm49.384 0c-4.86 0-8.66 3.84-8.66 8.699 0 4.86 3.799 8.7 8.66 8.7 4.861 0 8.619-3.84 8.619-8.7 0-4.861-3.76-8.7-8.619-8.7zm-109.262.585c-4.527 0-8.072 3.564-8.072 8.113 0 4.549 3.545 8.112 8.072 8.112 4.526 0 8.072-3.563 8.072-8.112l-.003-.25c-.128-4.431-3.627-7.863-8.07-7.863zm44.243-9.832a1.634 1.634 0 1 1-2.31 2.311 1.634 1.634 0 0 1 2.31-2.31z"/>
</svg>
